Coordinates
version=1
nRows=7
nColumns=46
inDegrees=yes

Units are S.I. units (second, meters, Newtons, ...)
Angles are in degrees.

endheader
time	pelvis_tilt	pelvis_list	pelvis_rotation	pelvis_tx	pelvis_ty	pelvis_tz	bb_angle	bb_tx	bb_ty	bb_tz	hip_flexion_r	hip_adduction_r	hip_rotation_r	knee_angle_r	knee_angle_r_beta	ankle_angle_r	subtalar_angle_r	mtp_angle_r	crank_angle_r	hip_flexion_l	hip_adduction_l	hip_rotation_l	knee_angle_l	knee_angle_l_beta	ankle_angle_l	subtalar_angle_l	mtp_angle_l	crank_angle_l	lumbar_extension	lumbar_bending	lumbar_rotation	arm_flex_r	arm_add_r	arm_rot_r	elbow_flex_r	pro_sup_r	wrist_flex_r	wrist_dev_r	arm_flex_l	arm_add_l	arm_rot_l	elbow_flex_l	pro_sup_l	wrist_flex_l	wrist_dev_l
      7.50500000	    -10.40812494	     -2.23306469	     -6.15150145	      0.12880182	      1.13855889	     -0.26380860	      0.00000000	      0.50000000	      0.00000000	      0.25000000	     78.73342407	      4.85177380	      4.25708765	     88.64747920	      1.54719039	      9.45351485	     -9.94743706	      0.00000000	      0.00000000	     46.53079917	    -16.48375069	     -6.35733463	     69.34840766	      1.21035804	     -5.43957265	      0.34745003	      0.00000000	      0.00000000	    -69.62366022	      1.35411186	     -1.89325917	     87.02481424	    -10.64588057	     33.45340599	     69.17242339	     45.58065586	      0.00000000	      0.00000000	     75.76786614	    -33.10594071	     18.40976559	     74.18037753	     51.49385008	      0.00000000	      0.00000000
      7.51000000	    -10.32812536	     -2.25789508	     -6.02986033	      0.12842102	      1.13649633	     -0.26338387	      0.00000000	      0.50000000	      0.00000000	      0.25000000	     77.00842672	      4.82203653	      4.03293916	     86.08982181	      1.50255084	     10.46229750	    -11.08859270	      0.00000000	      0.00000000	     47.88251845	    -16.60015392	     -5.67385771	     72.23686350	      1.26077111	     -5.00203262	     -0.39914385	      0.00000000	      0.00000000	    -69.56621094	      1.33188844	     -1.78727609	     86.52079816	    -10.66673191	     32.66227909	     69.77293465	     45.59414552	      0.00000000	      0.00000000	     75.93322514	    -33.19008560	     18.73291169	     74.29687912	     51.57279947	      0.00000000	      0.00000000
      7.51500000	    -10.06262659	     -1.79832094	     -5.95032666	      0.12812178	      1.13482772	     -0.26285812	      0.00000000	      0.50000000	      0.00000000	      0.25000000	     75.19033946	      4.66876425	      4.41120845	     83.60174894	      1.45912578	     11.15136131	    -11.60231416	      0.00000000	      0.00000000	     48.79606687	    -16.33120983	     -5.46438239	     74.82741255	      1.30598472	     -4.52703683	     -0.91263627	      0.00000000	      0.00000000	    -69.57637863	      1.05212604	     -2.22695761	     86.27482008	    -10.73688405	     32.57477412	     69.89735290	     45.60748742	      0.00000000	      0.00000000	     75.97319848	    -33.14721607	     18.82084313	     74.26507452	     51.58310970	      0.00000000	      0.00000000
      7.52000000	     -9.86709488	     -1.27742454	     -5.82085104	      0.12806843	      1.13317903	     -0.26248450	      0.00000000	      0.50000000	      0.00000000	      0.25000000	     73.65023867	      4.36636723	      4.81949644	     81.31858015	      1.41927697	     11.33558891	    -11.95572845	      0.00000000	      0.00000000	     49.73636682	    -15.95874478	     -5.27749760	     77.30654626	      1.34925377	     -3.94062337	     -1.33336132	      0.00000000	      0.00000000	    -69.53397489	      0.75632292	     -2.70465789	     86.03383082	    -10.84506783	     32.47529803	     69.98656375	     45.61532371	      0.00000000	      0.00000000	     75.99843399	    -33.05141296	     18.93691984	     74.28553094	     51.60244907	      0.00000000	      0.00000000
      7.52500000	     -9.71733170	     -0.96430593	     -5.60813113	      0.12781250	      1.13151866	     -0.26231448	      0.00000000	      0.50000000	      0.00000000	      0.25000000	     72.21591622	      4.02388471	      4.96391939	     79.10678868	      1.38067392	     10.99529712	    -12.48487075	      0.00000000	      0.00000000	     50.81344554	    -15.70389708	     -4.88742336	     79.76880897	      1.39222836	     -3.33239196	     -1.56665362	      0.00000000	      0.00000000	    -69.51159934	      0.66905707	     -2.90463657	     85.86343506	    -10.98680795	     32.18791709	     70.26815794	     45.63705637	      0.00000000	      0.00000000	     76.12376763	    -32.97917588	     19.22072239	     74.31522931	     51.64487724	      0.00000000	      0.00000000
      7.53000000	     -9.52522827	     -0.32617075	     -5.46962590	      0.12757999	      1.13018899	     -0.26193027	      0.00000000	      0.50000000	      0.00000000	      0.25000000	     70.84357883	      3.60125636	      5.51353326	     77.06483784	      1.34503516	     10.71362631	    -12.41136932	      0.00000000	      0.00000000	     51.70718775	    -15.25969389	     -4.87145212	     82.01983021	      1.43151609	     -2.84165177	     -1.79279623	      0.00000000	      0.00000000	    -69.50506667	      0.31533121	     -3.43407750	     85.74618114	    -11.15005141	     32.09854208	     70.31923588	     45.63911049	      0.00000000	      0.00000000	     76.11578085	    -32.82407780	     19.35943608	     74.32014348	     51.66233095	      0.00000000	      0.00000000
      7.53500000	     -9.48274689	     -0.24423202	     -5.22230167	      0.12734529	      1.12881272	     -0.26196326	      0.00000000	      0.50000000	      0.00000000	      0.25000000	     69.56192537	      3.26826353	      5.40029745	     74.94031997	      1.30795533	      9.84452264	    -12.91384647	      0.00000000	      0.00000000	     52.94837522	    -15.18659180	     -4.34413768	     84.38788113	      1.47284637	     -1.98793251	     -1.81201938	      0.00000000	      0.00000000	    -69.48140780	      0.41902544	     -3.29824359	     85.60505314	    -11.39184571	     31.71921720	     70.69295979	     45.66933314	      0.00000000	      0.00000000	     76.47100058	    -32.73807907	     19.86975430	     74.28749281	     51.71823741	      0.00000000	      0.00000000
